static_grf.mot
version=1
nRows=10
nColumns 19
inDegrees=yes
endheader
time	1_ground_force_vx	1_ground_force_vy	1_ground_force_vz	1_ground_force_px	1_ground_force_py	1_ground_force_pz	1_ground_torque_x	1_ground_torque_y	1_ground_torque_z	2_ground_force_vx	2_ground_force_vy	2_ground_force_vz	2_ground_force_px	2_ground_force_py	2_ground_force_pz	2_ground_torque_x	2_ground_torque_y	2_ground_torque_z
            1.355000	           -5.327680	          457.702816	          -42.230578	           -0.235634	            0.006014	           -0.356736	           -0.019986	            1.717020	           -0.158423	            2.496971	          468.698342	           46.065084	           -0.262448	            0.005696	           -0.742441	           -0.005737	           -1.076919	           -0.105843
            1.355500	           -5.098597	          458.423923	          -42.228055	           -0.235295	            0.006014	           -0.356574	           -0.018375	            1.652172	           -0.152191	            2.588635	          469.251498	           45.973160	           -0.262373	            0.005696	           -0.742509	           -0.005952	           -1.079006	           -0.105712
            1.356000	           -5.236713	          459.145745	          -42.408046	           -0.235375	            0.006013	           -0.356392	           -0.019373	            1.698561	           -0.156884	            2.733899	          467.962457	           46.109285	           -0.262762	            0.005693	           -0.742100	           -0.006736	           -1.152921	           -0.113600
            1.356500	           -5.052868	          458.424128	          -42.274029	           -0.235034	            0.006012	           -0.356292	           -0.018661	            1.693045	           -0.156126	            2.587971	          469.435638	           45.973817	           -0.262519	            0.005696	           -0.742505	           -0.006036	           -1.094923	           -0.107230
            1.357000	           -5.282784	          459.146129	          -42.499644	           -0.235549	            0.006013	           -0.356359	           -0.019157	            1.665045	           -0.154120	            2.545273	          468.329225	           46.345319	           -0.262378	            0.005695	           -0.742251	           -0.006166	           -1.134607	           -0.112279
            1.357500	           -5.511639	          458.424629	          -42.410455	           -0.235625	            0.006012	           -0.356142	           -0.019458	            1.618391	           -0.149723	            2.731844	          468.515381	           45.970472	           -0.262379	            0.005695	           -0.742126	           -0.006322	           -1.084301	           -0.106391
            1.358000	           -5.373751	          457.703200	          -42.322176	           -0.235438	            0.006013	           -0.356540	           -0.019800	            1.686437	           -0.155939	            2.541868	          469.250659	           46.160892	           -0.262372	            0.005696	           -0.742469	           -0.005853	           -1.080499	           -0.106290
            1.358500	           -5.419480	          457.702994	          -42.276210	           -0.235568	            0.006014	           -0.356576	           -0.019868	            1.677985	           -0.154989	            2.545150	          468.330229	           46.063751	           -0.262345	            0.005695	           -0.742170	           -0.006011	           -1.106111	           -0.108794
            1.359000	           -5.373184	          458.963714	          -41.995778	           -0.235276	            0.006012	           -0.356312	           -0.019450	            1.661348	           -0.152015	            2.824276	          468.883499	           46.112530	           -0.262309	            0.005697	           -0.742520	           -0.006693	           -1.111143	           -0.109276
            1.359500	           -5.373394	          458.243241	          -42.136433	           -0.235232	            0.006014	           -0.356608	           -0.019769	            1.685858	           -0.155018	            2.726026	          470.171370	           46.351810	           -0.262354	            0.005697	           -0.742688	           -0.006222	           -1.073120	           -0.105793
